<svg width="31" height="30" viewBox="0 0 31 30" fill="none" xmlns="http://www.w3.org/2000/svg">
<g id="Union">
<path fill-rule="evenodd" clip-rule="evenodd" d="M20.3685 13.1047C20.6026 11.8918 20.7252 10.6392 20.7252 9.358V0.56604H1.07258V29.0106C5.83161 29.0106 10.1956 27.3191 13.5959 24.5044C16.9883 26.7644 22.428 28.9126 29 27.7177C27.1899 26.9419 20.208 22.2874 20.4666 12.9782C20.4352 13.0214 20.4025 13.0635 20.3685 13.1047Z" fill="#FF4820"/>
<path d="M20.3685 13.1047L20.6791 13.3614L19.9729 13.0283L20.3685 13.1047ZM20.7252 0.56604V0.163115H21.1281V0.56604H20.7252ZM1.07258 0.56604H0.669653V0.163115H1.07258V0.56604ZM1.07258 29.0106V29.4136H0.669653V29.0106H1.07258ZM13.5959 24.5044L13.339 24.194L13.5699 24.0029L13.8193 24.169L13.5959 24.5044ZM29 27.7177L29.1587 27.3473L30.3891 27.8747L29.0721 28.1141L29 27.7177ZM20.4666 12.9782L20.1408 12.7412L20.9055 11.6897L20.8694 12.9894L20.4666 12.9782ZM21.1281 9.358C21.1281 10.665 21.0031 11.9432 20.7641 13.1811L19.9729 13.0283C20.2021 11.8405 20.3223 10.6135 20.3223 9.358H21.1281ZM21.1281 0.56604V9.358H20.3223V0.56604H21.1281ZM1.07258 0.163115H20.7252V0.968966H1.07258V0.163115ZM0.669653 29.0106V0.56604H1.4755V29.0106H0.669653ZM13.8529 24.8147C10.3829 27.687 5.92883 29.4136 1.07258 29.4136V28.6077C5.73439 28.6077 10.0082 26.9511 13.339 24.194L13.8529 24.8147ZM29.0721 28.1141C22.3717 29.3324 16.8274 27.1413 13.3725 24.8397L13.8193 24.169C17.1493 26.3874 22.4842 28.4928 28.9279 27.3213L29.0721 28.1141ZM20.8694 12.9894C20.7432 17.5328 22.3816 20.933 24.2722 23.2963C26.1707 25.6694 28.3154 26.9859 29.1587 27.3473L28.8413 28.088C27.8745 27.6737 25.6232 26.275 23.6429 23.7997C21.6547 21.3144 19.9315 17.7328 20.0639 12.967L20.8694 12.9894ZM20.0579 12.8481C20.0867 12.8132 20.1143 12.7776 20.1408 12.7412L20.7925 13.2152C20.7561 13.2652 20.7183 13.3139 20.6791 13.3614L20.0579 12.8481Z" fill="#FF4820"/>
</g>
</svg>
